<svg version="1.2" xmlns="http://www.w3.org/2000/svg" viewBox="0 0 500 500" width="500" height="500"><style>.a{fill:#ffffff;paint-order:stroke fill markers;stroke:#1f1f1f;stroke-width: 90;stroke-linejoin: round;}</style><path class="a" d="m158 90.2q-22.8 13.6-37.2 48-11.2 27.2-11.2 54.8 0 44.4 25.6 69.2 20 19.6 75.2 21.2 46.4 1.6 52.8 2.4 37.2 5.6 38.8 26.4 1.2 14.4-14.4 25.6-13.2 9.6-29.2 12-11.2 2-20 0-46.4-9.6-70.8-9.6-15.6 0-23.2 4.8-8.8 5.6-13.2 20.4-1.6 5.6-1.6 10 0 30.4 59.2 44 29.6 6.8 42.8 7.2 11.6 0.4 31.2-1.2l31.6-2.4q6.8-0.4 37.6-8.8 17.2-4.8 34.8-27.6 16.8-21.6 20-40 2.4-14 2.4-26.4 0-35.6-19.6-58-10.8-12.4-35.2-23.2-20.8-9.2-40.8-13.2-8-1.6-50.4-2-31.2-0.4-47.6-10.8-12.4-7.6-10.4-16.8 0-9.2 2-19.2 0.8-11.6 17.6-19.6 6-2.8 17.2-2.8 19.6 0 53.2 9.6 28 8 44.4 8 14.8 0 19.6-6.8 9.6-13.6 11.2-38.4 1.2-24-13.6-30.8-51.6-23.6-103.6-23.6-45.6 0-75.2 17.6z"/></svg>